<?xml version="1.0" encoding="UTF-8" standalone="no"?>
<svg width="214px" height="53px" viewBox="0 0 214 53" version="1.1" xmlns="http://www.w3.org/2000/svg" xmlns:xlink="http://www.w3.org/1999/xlink">
    <!-- Generator: Sketch 46.2 (44496) - http://www.bohemiancoding.com/sketch -->
    <title>morfix</title>
    <desc>Created with Sketch.</desc>
    <defs>
        <rect id="path-1" x="0" y="0" width="214" height="53" rx="18"></rect>
        <filter x="-0.2%" y="-0.9%" width="100.5%" height="103.8%" filterUnits="objectBoundingBox" id="filter-2">
            <feOffset dx="0" dy="1" in="SourceAlpha" result="shadowOffsetOuter1"></feOffset>
            <feColorMatrix values="0 0 0 0 0   0 0 0 0 0   0 0 0 0 0  0 0 0 0.125226449 0" type="matrix" in="shadowOffsetOuter1"></feColorMatrix>
        </filter>
        <polygon id="path-3" points="35.1659278 31.0341245 35.1659278 0.309442777 0.315516227 0.309442777 0.315516227 31.0341245 35.1659278 31.0341245"></polygon>
        <polygon id="path-5" points="0.423866667 6 5.9252 6 5.9252 0.6108 0.423866667 0.6108"></polygon>
    </defs>
    <g id="Symbols" stroke="none" stroke-width="1" fill="none" fill-rule="evenodd">
        <g id="morfix">
            <g id="Page-1" transform="translate(17.540703, 9.778124)">
                <path d="M47.5673021,0.557737319 C46.5912296,0.557737319 45.6372211,0.648650698 44.7084288,0.808254187 C43.9645543,0.91937054 43.245896,1.08503492 42.5472004,1.28908495 C41.0111207,1.68506323 39.6809724,2.21236083 38.7406227,2.81238913 C38.7374707,2.81137898 38.5399447,2.93158667 38.233149,3.14472804 C37.2129484,3.86294374 35.2250805,5.45796848 34.2700214,7.58837201 C34.128181,7.86212229 34.0021006,8.14698422 33.9054389,8.44901867 C32.9514305,11.4309775 34.6934415,14.5917327 37.7950196,15.5089477 C40.1432672,16.2029198 42.5955312,15.4089429 44.0633173,13.6896699 C44.8103438,12.1087873 46.4640985,11.0067151 48.3878754,11.0067151 C51.0135,11.0067151 53.1411069,13.0522661 53.1411069,15.5766276 C53.1411069,16.4807107 52.8647806,17.3201442 52.3930298,18.0302787 C52.1324636,18.4595919 51.8435293,18.8121338 51.4820988,19.1030566 C51.3738798,19.1838685 51.2940289,19.221244 51.2246846,19.2697311 C51.1763538,19.2990254 51.1122629,19.3262995 51.0597294,19.3555938 C50.4629488,19.7455112 49.7684559,20.0051194 49.0203788,20.1000733 C46.9915349,20.9910245 45.5794343,22.9557636 45.5794343,25.2397097 C45.5794343,28.3590488 48.2103122,30.888461 51.4558321,30.888461 C51.7846918,30.888461 52.1040955,30.8561363 52.4192965,30.8056289 C54.8011656,30.5561221 57.0065221,29.3227306 57.9794426,28.6297686 C58.0540402,28.5742105 58.0655976,28.564109 58.080307,28.5550176 C58.1654112,28.4782463 58.2158434,28.4368302 58.2158434,28.4368302 C61.8711246,25.5508355 64.035505,21.3183126 64.035505,16.3908074 C64.035505,7.64696063 56.662953,0.557737319 47.5673021,0.557737319 Z" id="Fill-1" fill="#DB0466"></path>
                <path d="M111.717502,16.5406841 C111.717502,7.40605597 104.015454,0 94.5132993,0 C93.493604,0 92.4969589,0.0949764943 91.5266568,0.261713007 C87.3457963,0.885391986 83.7620448,2.89994896 81.1749385,5.93286501 L81.1716456,5.93180972 C81.1716456,5.93180972 81.0124897,6.11015447 80.7743047,6.41407925 C80.7611332,6.43096396 80.746864,6.44679338 80.7336925,6.46262279 C80.7336925,6.46262279 80.7336925,6.46473338 80.7347901,6.46473338 C79.985111,7.43243833 78.508803,9.61056593 78.2354939,12.019803 C78.1817102,12.335336 78.1465861,12.6572008 78.1465861,12.987508 C78.1465861,16.2473123 80.893946,18.8897694 84.2845152,18.8897694 C87.1668831,18.8897694 89.5860526,16.9786313 90.2446287,14.4026577 C90.3478056,13.9425494 90.5662333,13.5330951 90.7714895,13.2196727 C90.8241756,13.1500233 90.8647878,13.0687656 90.9207668,13.0033374 C90.9317431,12.9896185 90.9416217,12.9737891 90.9515003,12.9611256 C91.5540974,12.2720184 92.364146,11.7992465 93.2521261,11.5438652 C93.3509125,11.5090405 93.4486013,11.4773817 93.5484853,11.4488887 C93.5704379,11.442557 93.5912928,11.4362252 93.6121477,11.4309487 C93.723008,11.4003452 93.8338683,11.3739628 93.9458262,11.3507464 C93.9743645,11.3444146 94.0029028,11.3391381 94.0314411,11.3328064 C94.1412038,11.3127558 94.2498689,11.2937605 94.3607292,11.2789863 C94.3914627,11.2747652 94.4232939,11.2715993 94.4551251,11.2673781 C94.5648878,11.2547146 94.6746504,11.2431063 94.7855107,11.2357193 C94.8118538,11.234664 94.8392945,11.234664 94.8656375,11.2325534 C95.2212686,11.2156687 95.5779973,11.2293875 95.9292379,11.2747652 C95.9676548,11.2800416 96.0060717,11.2821522 96.0444887,11.288484 C96.1268107,11.3000922 96.2080351,11.3169769 96.2892594,11.3328064 C96.3529218,11.3454699 96.4165842,11.3560228 96.4791489,11.370797 C96.5526899,11.3876817 96.6262309,11.4077323 96.6997719,11.4277829 C96.7689224,11.4457229 96.8369752,11.4647182 96.9050281,11.485824 C96.9730809,11.5069299 97.0411338,11.5301464 97.108089,11.5544182 C97.1794348,11.5797452 97.2507805,11.6071829 97.3210286,11.6356758 C97.3835934,11.6610029 97.4450605,11.68633 97.5065276,11.7137676 C97.5800686,11.7475371 97.6525119,11.7834171 97.7249553,11.8192971 C97.7809343,11.84779 97.8369132,11.876283 97.8906969,11.9068865 C97.9675308,11.9490983 98.0421694,11.9955312 98.1168081,12.0419642 C98.1629084,12.0725677 98.211204,12.1000054 98.2573043,12.1316642 C98.3473097,12.1928713 98.4329246,12.2582995 98.5174418,12.3258384 C98.5448825,12.3469443 98.5734208,12.3669949 98.6008615,12.389156 C98.7117218,12.4809666 98.817094,12.5780537 98.9191733,12.6814726 C98.9422234,12.7046891 98.9630783,12.7310714 98.9861285,12.7553432 C99.0618647,12.8366009 99.1365034,12.9189138 99.2056538,13.005448 C99.237485,13.0455491 99.2671209,13.0877609 99.2978545,13.1289174 C99.3538335,13.2059539 99.4098124,13.2829904 99.4614009,13.364248 C99.4921344,13.4117363 99.5206727,13.4623904 99.549211,13.5119893 C99.5953114,13.5911363 99.6403141,13.672394 99.6820239,13.7557623 C99.7083669,13.8095823 99.7336123,13.8655129 99.7588578,13.9214435 C99.7961771,14.005867 99.8313011,14.0934565 99.8642299,14.1821012 C99.8850848,14.2401424 99.9070374,14.2992389 99.925697,14.3593906 C99.9553329,14.4533118 99.9805784,14.5503989 100.004726,14.647486 C100.020093,14.7076378 100.03546,14.7667343 100.048631,14.8289966 C100.070584,14.9387473 100.087048,15.0516638 100.102415,15.1666908 C100.109001,15.2215662 100.118879,15.2732756 100.124367,15.3292062 C100.14193,15.5022745 100.151808,15.6785086 100.151808,15.8621298 C100.151808,16.0404746 100.140832,16.2114323 100.124367,16.3792241 C100.122172,16.3939982 100.121075,16.4098276 100.118879,16.425657 C100.115586,16.4562606 100.112294,16.4868641 100.107903,16.5164124 C100.092536,16.6219418 100.072779,16.7264159 100.050826,16.8308901 C100.045338,16.8583277 100.03985,16.8847101 100.033264,16.9121478 C100.009117,17.0197878 99.981676,17.1263725 99.9509424,17.2308467 C99.9443567,17.2519525 99.9377709,17.2720031 99.9322828,17.2920537 C99.9026469,17.3880855 99.8686204,17.4820067 99.834594,17.5759279 C99.5700659,18.4254399 99.0805244,19.1989707 98.3681646,19.7751614 C98.3549931,19.7846591 98.3385287,19.795212 98.3242595,19.8047097 C98.2562067,19.8585297 98.172787,19.8975756 98.1003437,19.9471744 C97.8402061,20.1054686 97.5153086,20.2711498 97.1508965,20.3809004 C97.0619887,20.4072827 84.1396284,20.4315545 84.0463302,20.4505498 C81.3823899,21.0805606 79.4055641,23.3927106 79.4055641,26.1491395 C79.4055641,29.3899485 82.1386548,32.0165762 85.5094667,32.0165762 C85.6049602,32.0165762 98.5295157,32.0144656 98.6239116,32.0091892 C98.8664872,31.9965256 99.1057698,31.969088 99.3406619,31.9310974 C101.832275,31.6704397 104.085703,30.2595111 105.085641,29.5429662 L105.087836,29.5429662 C105.105398,29.531358 105.121862,29.5176391 105.138327,29.5049756 C105.453346,29.277032 105.637747,29.1250696 105.637747,29.1250696 L105.636649,29.1219037 C109.45639,26.1100936 111.717502,21.6884101 111.717502,16.5406841" id="Fill-3" fill="#FE9412"></path>
                <g id="Group-7" transform="translate(0.000000, 0.170513)" fill="#8D4F8A">
                    <path d="M16.104566,20.5618123 C14.0767728,20.5618123 12.4335247,18.3576679 12.4335247,15.6383477 C12.4335247,12.9190275 14.0767728,10.7148831 16.104566,10.7148831 C18.1323593,10.7148831 19.7756073,12.9190275 19.7756073,15.6383477 C19.7756073,18.3576679 18.1323593,20.5618123 16.104566,20.5618123 M16.104566,0.154789017 C7.21064374,0.154789017 -0.000105067009,7.08642914 -0.000105067009,15.6383477 C-0.000105067009,24.1892561 7.21064374,31.1219064 16.104566,31.1219064 C24.9984883,31.1219064 32.2092371,24.1892561 32.2092371,15.6383477 C32.2092371,7.08642914 24.9984883,0.154789017 16.104566,0.154789017" id="Fill-5"></path>
                </g>
                <path d="M131.508487,0.572990563 L131.508487,0.575010861 C131.492727,0.575010861 131.478018,0.572990563 131.463309,0.572990563 L116.833778,0.572990563 C113.611373,0.572990563 110.999407,3.08422014 110.999407,6.18234608 C110.999407,9.28148218 113.611373,11.7927118 116.833778,11.7927118 L125.674116,11.7927118 L125.674116,25.5004291 C125.674116,28.598555 128.286082,31.1107948 131.508487,31.1107948 C134.730893,31.1107948 137.342858,28.598555 137.342858,25.5004291 L137.342858,6.19042727 C137.342858,3.09230133 134.730893,0.572990563 131.508487,0.572990563" id="Fill-8" fill="#3A9A2D"></path>
                <path d="M152.180737,25.5460878 C152.180737,28.639163 149.572973,31.1473621 146.354771,31.1473621 C143.137619,31.1473621 140.529856,28.639163 140.529856,25.5460878 L140.529856,6.1906293 C140.529856,3.09654395 143.137619,0.589354972 146.354771,0.589354972 L146.354771,0.573192593 C149.572973,0.573192593 152.180737,3.09654395 152.180737,6.1906293 L152.180737,25.5460878 Z" id="Fill-10" fill="#043A7E"></path>
                <path d="M71.393978,0.572990563 L71.393978,0.589152942 C68.1768262,0.589152942 65.5680124,3.09634192 65.5680124,6.19042727 L65.5680124,9.60068916 L65.5680124,10.0360632 L65.5680124,10.075459 L65.5701137,10.075459 C65.5932285,13.1503516 68.1904849,15.6534999 71.393978,15.6534999 L71.393978,15.6373376 C74.6111298,15.6373376 77.2199437,13.1301486 77.2199437,10.0360632 L77.2199437,9.78655651 L77.2199437,9.31077649 L77.2199437,6.19042727 C77.2199437,3.09634192 74.6111298,0.572990563 71.393978,0.572990563" id="Fill-12" fill="#E62714"></path>
                <path d="M38.9389892,17.2036741 L38.9389892,17.2178162 C36.031785,17.2178162 33.6740814,19.4845898 33.6740814,22.2796711 L33.6740814,33.4115094 L33.6740814,33.8054673 L33.6740814,33.8408225 L33.6761827,33.8408225 C33.6961454,36.6197415 36.0443931,38.8814644 38.9389892,38.8814644 L38.9389892,38.8663121 C41.8461933,38.8663121 44.203897,36.6005487 44.203897,33.8054673 L44.203897,33.579194 L44.203897,33.1498809 L44.203897,22.2796711 C44.203897,19.4845898 41.8461933,17.2036741 38.9389892,17.2036741" id="Fill-14" fill="#DB0466"></path>
                <g id="Group-18" transform="translate(153.397833, 0.170513)">
                    <mask id="mask-4" fill="white">
                        <use xlink:href="#path-3"></use>
                    </mask>
                    <g id="Clip-17"></g>
                    <path d="M35.166243,16.2202944 C35.166243,7.47644753 30.5044198,0.00942862488 19.1225108,0.591274254 C17.650522,0.667035404 15.0700763,1.39232214 14.5205758,2.57116563 C13.9290485,1.27009416 12.7407407,0.309442777 11.7814789,0.309442777 L6.14043119,0.309442777 C2.92327938,0.309442777 0.315516227,2.81663176 0.315516227,5.91071711 C0.315516227,8.01990751 1.52904018,9.85433748 3.32043268,10.8099381 L3.32043268,25.3752717 C3.32043268,28.4683469 5.92819583,30.976546 9.14639831,30.976546 C12.3635501,30.976546 14.9713133,28.4683469 14.9713133,25.3752717 L14.9713133,14.5777926 C15.0343535,14.3080829 15.1163057,14.043424 15.2245248,13.7888665 C15.2434368,13.7363388 15.2528929,13.6817908 15.2728556,13.6302732 C15.2749569,13.6262326 15.2760076,13.622192 15.2781089,13.6181514 C15.4146961,13.2777313 15.5870059,12.9524634 15.8044947,12.6544696 C16.3666032,11.8392796 17.2344566,11.2190483 18.4133085,11.0069171 C18.5793144,10.9725721 18.7505736,10.9463082 18.9281368,10.9281255 C18.9344408,10.9271154 18.9407449,10.9261052 18.9470489,10.9250951 C19.1309162,10.9069124 19.3200368,10.8978211 19.5154614,10.8978211 C19.6972273,10.8978211 19.8726892,10.9069124 20.0428978,10.9220646 C20.0985833,10.9271154 20.1500661,10.9362067 20.204701,10.9432777 C20.3181734,10.9564097 20.430595,10.9715619 20.5388141,10.9917649 C20.5997529,11.0038867 20.6585905,11.0180287 20.7184787,11.0321708 C20.8151403,11.0543941 20.9107513,11.0776275 21.0032102,11.1038914 C21.0630984,11.1220741 21.1208853,11.1412669 21.1786722,11.1614699 C21.2669284,11.1907642 21.3530834,11.2230889 21.437137,11.257434 C21.4928225,11.2796572 21.5474574,11.3028907 21.6010415,11.3281444 C21.6840445,11.3655199 21.7638954,11.4059258 21.8426956,11.4483521 C21.8920771,11.4746159 21.9414586,11.5008798 21.9887388,11.529164 C22.0685897,11.576641 22.1452886,11.6271484 22.2209369,11.6796761 C22.261913,11.7069501 22.3039398,11.7342241 22.3428146,11.7625083 C22.4289696,11.8271578 22.5109218,11.8948378 22.5907727,11.964538 C22.6149382,11.984741 22.6412049,12.0039338 22.6653703,12.0261571 C22.7662347,12.1180806 22.8628963,12.2160651 22.9543046,12.3170799 C22.9763687,12.3413235 22.9952807,12.3675874 23.0162941,12.3928411 C23.083537,12.4706225 23.1486786,12.5494141 23.2085668,12.6312362 C23.2400869,12.6736624 23.2674043,12.7170988 23.296823,12.7605352 C23.3430525,12.8282151 23.389282,12.8958951 23.4313088,12.9666055 C23.4617783,13.0161028 23.4890957,13.0676204 23.5174638,13.1181278 C23.5542372,13.1837875 23.5889093,13.2504573 23.6225308,13.3181372 C23.6498482,13.3736954 23.6750643,13.4302637 23.7002804,13.4878422 C23.7286485,13.5524917 23.7549152,13.6171413 23.7801313,13.6828009 C23.8042967,13.74442 23.8274114,13.8060391 23.8484248,13.8686683 C23.8694382,13.9312975 23.8872996,13.9939267 23.9062117,14.0565559 C23.9251238,14.1232257 23.9450865,14.1909057 23.9618972,14.2585857 C23.9766066,14.3161641 23.9871133,14.3737426 23.9997213,14.4323312 C24.0154814,14.5060721 24.0312414,14.5808231 24.0438495,14.6565842 C24.0491028,14.6909293 24.0522548,14.7262845 24.0575082,14.7616397 C24.102687,15.082867 24.1163457,15.409145 24.0984843,15.7344128 C24.0974337,15.7596666 24.0974337,15.7839101 24.0953323,15.8081537 C24.0890283,15.9091686 24.0774709,16.0101834 24.0638122,16.1101881 C24.0606602,16.1394825 24.0575082,16.1687768 24.0533055,16.1970609 C24.0385961,16.2980758 24.0196841,16.3980805 23.9986707,16.4980852 C23.9934173,16.5243491 23.988164,16.5496028 23.9818599,16.5758667 C23.9587452,16.6789018 23.9324785,16.7809269 23.9030597,16.8809316 C23.8967557,16.9011346 23.8904516,16.9203274 23.8851983,16.9395202 C23.8568302,17.0314437 23.8242594,17.121347 23.7916887,17.2112502 C23.5384772,18.0244199 23.0698783,18.7648588 22.3879934,19.3164 C22.3753854,19.3254913 22.3596253,19.3355928 22.3459666,19.3446842 C22.2808251,19.3962017 22.2009741,19.4335772 22.1316299,19.4810542 C21.8216822,19.669952 21.4161236,19.8689513 20.9601328,19.9628951 C18.4101565,20.5659539 16.5189503,22.7791896 16.5189503,25.4176979 C16.5189503,28.5198645 19.1351188,31.0341245 22.3617267,31.0341245 C22.6884851,31.0341245 23.0068381,31.0028099 23.3188871,30.9523024 C25.7039082,30.7027957 27.8609339,29.352227 28.8180944,28.666336 L28.8201957,28.6673462 C28.8370064,28.6552244 28.8527665,28.6420924 28.8685265,28.6299707 C29.1700688,28.4117786 29.3465814,28.2663171 29.3465814,28.2663171 L29.3455307,28.2632867 C33.0018626,25.3803224 35.166243,21.1477995 35.166243,16.2202944" id="Fill-16" fill="#471462" mask="url(#mask-4)"></path>
                </g>
            </g>
            <g id="Page-1" transform="translate(8.000000, 11.000000)">
                <polygon id="Fill-1" fill="#1C67CF" points="0 0.666666667 0 1.25185552 1.64304813 1.25185552 1.64304813 6 2.34893048 6 2.34893048 1.25185552 4 1.25185552 4 0.666666667"></polygon>
                <g id="Group-4" transform="translate(4.000000, 0.000000)">
                    <mask id="mask-6" fill="white">
                        <use xlink:href="#path-5"></use>
                    </mask>
                    <g id="Clip-3"></g>
                    <path d="M5.1172,3.63346667 C5.06986667,2.89013333 5.0212,1.9788 5.0292,1.31413333 L5.0052,1.31413333 C4.82186667,1.93813333 4.58186667,2.66613333 4.31786667,3.38546667 L3.38186667,5.96813333 L2.83053333,5.96813333 L1.9752,3.40146667 C1.71186667,2.64213333 1.5032,1.94613333 1.3592,1.31413333 L1.3352,1.31413333 C1.31186667,1.9788 1.28786667,2.87346667 1.23186667,3.68946667 L1.08786667,6.00013333 L0.423866667,6.00013333 L0.799866667,0.6108 L1.6872,0.6108 L2.60653333,3.22546667 C2.83053333,3.8728 3.00653333,4.5128 3.14253333,5.07213333 L3.16653333,5.07213333 C3.30253333,4.5288 3.49386667,3.89746667 3.74186667,3.21746667 L4.70186667,0.6108 L5.5892,0.6108 L5.9252,6.00013333 L5.23786667,6.00013333 L5.1172,3.63346667 Z" id="Fill-2" fill="#1C67CF" mask="url(#mask-6)"></path>
                </g>
            </g>
        </g>
    </g>
</svg>